<?xml version="1.0" encoding="UTF-8"?>
<svg xmlns="http://www.w3.org/2000/svg" xmlns:xlink="http://www.w3.org/1999/xlink" viewBox="0 0 150 150" width="150px" height="150px">
<g id="surface7597861">
<path style=" stroke:none;fill-rule:nonzero;fill:rgb(20%,20%,20%);fill-opacity:1;" d="M 66 0 C 45 0 30 21 30 42 C 30 88.5 69 126 69 126 C 69 126 42 87 42 42 C 42 6 66 0 66 0 Z M 75 0 C 67.199219 0 54 9.476562 54 45 C 54 78.175781 70.734375 122.210938 71.449219 124.070312 L 72.1875 126 L 77.8125 126 L 78.550781 124.070312 C 79.261719 122.210938 96 78.175781 96 45 C 96 9.476562 82.800781 0 75 0 Z M 84 0 C 84 0 108 6 108 42 C 108 87 81 126 81 126 C 81 126 120 88.5 120 42 C 120 21 105 0 84 0 Z M 42 6 C 42 6 18 15 18 42 C 18 93 64.5 126 64.5 126 C 64.5 126 24 90 24 42 C 24 17.25 42 6 42 6 Z M 108 6 C 108 6 126 17.25 126 42 C 126 90 85.5 126 85.5 126 C 85.5 126 132 93 132 42 C 132 15 108 6 108 6 Z M 63 132 C 62.074219 132 61.207031 132.425781 60.640625 133.15625 C 60.070312 133.882812 59.863281 134.828125 60.089844 135.726562 L 63.089844 147.726562 C 63.425781 149.058594 64.621094 150 66 150 L 84 150 C 85.378906 150 86.574219 149.0625 86.914062 147.726562 L 89.914062 135.726562 C 90.136719 134.828125 89.929688 133.882812 89.363281 133.15625 C 88.792969 132.425781 87.925781 132 87 132 Z M 63 132 "/>
</g>
</svg>
